<svg width="304" height="81" viewBox="0 0 304 81" fill="none" xmlns="http://www.w3.org/2000/svg">
<path d="M18.07 59.6515C21.2433 59.6515 23.5533 59.1149 25 58.0415C26.4467 56.9682 27.17 55.4515 27.17 53.4915C27.17 52.3249 26.9133 51.3215 26.4 50.4815C25.9333 49.6415 25.2333 48.8949 24.3 48.2415C23.4133 47.5415 22.3167 46.9115 21.01 46.3515C19.7033 45.7449 18.21 45.1615 16.53 44.6015C14.85 43.9949 13.2167 43.3415 11.63 42.6415C10.09 41.8949 8.71333 40.9849 7.5 39.9115C6.33333 38.8382 5.37667 37.5549 4.63 36.0615C3.93 34.5682 3.58 32.7715 3.58 30.6715C3.58 26.2849 5.09667 22.8549 8.13 20.3815C11.1633 17.8615 15.2933 16.6015 20.52 16.6015C23.5533 16.6015 26.2367 16.9515 28.57 17.6515C30.95 18.3049 32.8167 19.0282 34.17 19.8215L31.44 26.9615C29.8533 26.0749 28.1033 25.3982 26.19 24.9315C24.3233 24.4649 22.3867 24.2315 20.38 24.2315C18 24.2315 16.1333 24.7215 14.78 25.7015C13.4733 26.6815 12.82 28.0582 12.82 29.8315C12.82 30.9049 13.03 31.8382 13.45 32.6315C13.9167 33.3782 14.5467 34.0549 15.34 34.6615C16.18 35.2682 17.1367 35.8282 18.21 36.3415C19.33 36.8549 20.5433 37.3449 21.85 37.8115C24.1367 38.6515 26.1667 39.5149 27.94 40.4015C29.76 41.2415 31.2767 42.2682 32.49 43.4815C33.75 44.6482 34.7067 46.0482 35.36 47.6815C36.0133 49.2682 36.34 51.2049 36.34 53.4915C36.34 57.8782 34.7767 61.2849 31.65 63.7115C28.57 66.0915 24.0433 67.2815 18.07 67.2815C16.0633 67.2815 14.22 67.1415 12.54 66.8615C10.9067 66.6282 9.43667 66.3249 8.13 65.9515C6.87 65.5782 5.77333 65.2049 4.84 64.8315C3.90667 64.4115 3.16 64.0382 2.6 63.7115L5.19 56.5015C6.45 57.2015 8.15333 57.9015 10.3 58.6015C12.4467 59.3015 15.0367 59.6515 18.07 59.6515ZM64.5527 46.9815C64.5527 43.1549 64.0627 40.4015 63.0827 38.7215C62.1494 36.9949 60.3761 36.1315 57.7627 36.1315C56.8294 36.1315 55.8027 36.2015 54.6827 36.3415C53.5627 36.4815 52.7227 36.5982 52.1627 36.6915V66.2315H43.6927V30.8115C45.3261 30.3449 47.4494 29.9015 50.0627 29.4815C52.7227 29.0615 55.5227 28.8515 58.4627 28.8515C60.9827 28.8515 63.0361 29.1782 64.6227 29.8315C66.2561 30.4849 67.6094 31.3482 68.6827 32.4215C69.1961 32.0482 69.8494 31.6515 70.6427 31.2315C71.4361 30.8115 72.3227 30.4382 73.3027 30.1115C74.2827 29.7382 75.3094 29.4349 76.3827 29.2015C77.5027 28.9682 78.6227 28.8515 79.7427 28.8515C82.5894 28.8515 84.9227 29.2715 86.7427 30.1115C88.6094 30.9049 90.0561 32.0482 91.0827 33.5415C92.1561 34.9882 92.8794 36.7615 93.2527 38.8615C93.6727 40.9149 93.8827 43.1782 93.8827 45.6515V66.2315H85.4127V46.9815C85.4127 43.1549 84.9461 40.4015 84.0127 38.7215C83.0794 36.9949 81.2827 36.1315 78.6227 36.1315C77.2694 36.1315 75.9861 36.3649 74.7727 36.8315C73.5594 37.2515 72.6494 37.6715 72.0427 38.0915C72.4161 39.2582 72.6727 40.4949 72.8127 41.8015C72.9527 43.1082 73.0227 44.5082 73.0227 46.0015V66.2315H64.5527V46.9815ZM112.799 66.2315H104.329V29.6215H112.799V66.2315ZM113.709 18.9115C113.709 20.4982 113.196 21.7582 112.169 22.6915C111.142 23.6249 109.929 24.0915 108.529 24.0915C107.082 24.0915 105.846 23.6249 104.819 22.6915C103.792 21.7582 103.279 20.4982 103.279 18.9115C103.279 17.2782 103.792 15.9949 104.819 15.0615C105.846 14.1282 107.082 13.6615 108.529 13.6615C109.929 13.6615 111.142 14.1282 112.169 15.0615C113.196 15.9949 113.709 17.2782 113.709 18.9115ZM136.345 66.9315C133.825 66.8849 131.725 66.6049 130.045 66.0915C128.412 65.5782 127.105 64.8549 126.125 63.9215C125.145 62.9415 124.445 61.7515 124.025 60.3515C123.652 58.9049 123.465 57.2715 123.465 55.4515V13.3115L131.935 11.9115V53.8415C131.935 54.8682 132.005 55.7315 132.145 56.4315C132.332 57.1315 132.635 57.7382 133.055 58.2515C133.475 58.7182 134.035 59.0915 134.735 59.3715C135.482 59.6049 136.415 59.7915 137.535 59.9315L136.345 66.9315ZM142.356 48.1015C142.356 44.8815 142.823 42.0582 143.756 39.6315C144.736 37.2049 146.019 35.1982 147.606 33.6115C149.193 31.9782 151.013 30.7649 153.066 29.9715C155.119 29.1315 157.219 28.7115 159.366 28.7115C164.406 28.7115 168.326 30.2749 171.126 33.4015C173.973 36.5282 175.396 41.1949 175.396 47.4015C175.396 47.8682 175.373 48.4049 175.326 49.0115C175.326 49.5715 175.303 50.0849 175.256 50.5515H151.106C151.339 53.4915 152.366 55.7782 154.186 57.4115C156.053 58.9982 158.736 59.7915 162.236 59.7915C164.289 59.7915 166.156 59.6049 167.836 59.2315C169.563 58.8582 170.916 58.4615 171.896 58.0415L173.016 64.9715C172.549 65.2049 171.896 65.4615 171.056 65.7415C170.263 65.9749 169.329 66.1849 168.256 66.3715C167.229 66.6049 166.109 66.7915 164.896 66.9315C163.683 67.0715 162.446 67.1415 161.186 67.1415C157.966 67.1415 155.166 66.6749 152.786 65.7415C150.406 64.7615 148.446 63.4315 146.906 61.7515C145.366 60.0249 144.223 58.0182 143.476 55.7315C142.729 53.3982 142.356 50.8549 142.356 48.1015ZM166.926 44.3215C166.926 43.1549 166.763 42.0582 166.436 41.0315C166.109 39.9582 165.619 39.0482 164.966 38.3015C164.359 37.5082 163.589 36.9015 162.656 36.4815C161.769 36.0149 160.696 35.7815 159.436 35.7815C158.129 35.7815 156.986 36.0382 156.006 36.5515C155.026 37.0182 154.186 37.6482 153.486 38.4415C152.833 39.2349 152.319 40.1449 151.946 41.1715C151.573 42.1982 151.316 43.2482 151.176 44.3215H166.926ZM199.426 66.7915C196.86 66.7915 194.27 66.6982 191.656 66.5115C189.043 66.3715 186.756 66.0449 184.796 65.5315V18.4215C185.823 18.2349 186.92 18.0715 188.086 17.9315C189.253 17.7449 190.443 17.6049 191.656 17.5115C192.87 17.4182 194.06 17.3482 195.226 17.3015C196.44 17.2549 197.583 17.2315 198.656 17.2315C201.596 17.2315 204.326 17.4649 206.846 17.9315C209.366 18.3515 211.536 19.0749 213.356 20.1015C215.223 21.1282 216.67 22.4815 217.696 24.1615C218.723 25.8415 219.236 27.9182 219.236 30.3915C219.236 32.6782 218.676 34.6382 217.556 36.2715C216.483 37.9049 214.966 39.2115 213.006 40.1915C215.946 41.1715 218.116 42.6182 219.516 44.5315C220.916 46.4449 221.616 48.8715 221.616 51.8115C221.616 56.8049 219.796 60.5615 216.156 63.0815C212.516 65.5549 206.94 66.7915 199.426 66.7915ZM193.476 44.3915V59.1615C194.456 59.2549 195.506 59.3249 196.626 59.3715C197.746 59.4182 198.773 59.4415 199.706 59.4415C201.526 59.4415 203.206 59.3249 204.746 59.0915C206.333 58.8582 207.686 58.4615 208.806 57.9015C209.973 57.2949 210.883 56.5015 211.536 55.5215C212.236 54.5415 212.586 53.2815 212.586 51.7415C212.586 48.9882 211.583 47.0749 209.576 46.0015C207.57 44.9282 204.793 44.3915 201.246 44.3915H193.476ZM193.476 37.4615H199.706C203.066 37.4615 205.703 36.9949 207.616 36.0615C209.53 35.0815 210.486 33.3549 210.486 30.8815C210.486 28.5482 209.483 26.8915 207.476 25.9115C205.516 24.9315 202.95 24.4415 199.776 24.4415C198.423 24.4415 197.21 24.4649 196.136 24.5115C195.11 24.5582 194.223 24.6282 193.476 24.7215V37.4615ZM263.492 47.8915C263.492 50.7849 263.072 53.4215 262.232 55.8015C261.392 58.1815 260.202 60.2115 258.662 61.8915C257.122 63.5715 255.256 64.8782 253.062 65.8115C250.916 66.7449 248.536 67.2115 245.922 67.2115C243.309 67.2115 240.929 66.7449 238.782 65.8115C236.636 64.8782 234.792 63.5715 233.252 61.8915C231.712 60.2115 230.499 58.1815 229.612 55.8015C228.772 53.4215 228.352 50.7849 228.352 47.8915C228.352 44.9982 228.772 42.3849 229.612 40.0515C230.499 37.6715 231.712 35.6415 233.252 33.9615C234.839 32.2815 236.706 30.9982 238.852 30.1115C240.999 29.1782 243.356 28.7115 245.922 28.7115C248.489 28.7115 250.846 29.1782 252.992 30.1115C255.186 30.9982 257.052 32.2815 258.592 33.9615C260.132 35.6415 261.322 37.6715 262.162 40.0515C263.049 42.3849 263.492 44.9982 263.492 47.8915ZM254.812 47.8915C254.812 44.2515 254.019 41.3815 252.432 39.2815C250.892 37.1349 248.722 36.0615 245.922 36.0615C243.122 36.0615 240.929 37.1349 239.342 39.2815C237.802 41.3815 237.032 44.2515 237.032 47.8915C237.032 51.5782 237.802 54.4949 239.342 56.6415C240.929 58.7882 243.122 59.8615 245.922 59.8615C248.722 59.8615 250.892 58.7882 252.432 56.6415C254.019 54.4949 254.812 51.5782 254.812 47.8915ZM284.353 41.5915L292.123 29.6215H301.013L288.973 46.9115C291.493 50.1782 293.896 53.4915 296.183 56.8515C298.516 60.1649 300.429 63.2915 301.923 66.2315H292.753C292.333 65.3449 291.773 64.3415 291.073 63.2215C290.419 62.0549 289.696 60.8649 288.903 59.6515C288.156 58.3915 287.363 57.1549 286.523 55.9415C285.683 54.7282 284.866 53.5849 284.073 52.5115C282.439 54.6115 280.829 56.9449 279.243 59.5115C277.703 62.0315 276.419 64.2715 275.393 66.2315H266.713C267.413 64.8315 268.253 63.3382 269.233 61.7515C270.213 60.1649 271.263 58.5549 272.383 56.9215C273.503 55.2415 274.646 53.5849 275.813 51.9515C277.026 50.2715 278.216 48.6849 279.383 47.1915L267.273 29.6215H276.583L284.353 41.5915Z" fill="#F1F1F1"/>
<path d="M246.364 27.7751C234.837 27.7751 225.492 36.6528 225.492 47.6035C225.492 47.9009 225.502 48.1983 225.511 48.4867C224.297 48.6399 223.357 49.6133 223.357 50.812C223.357 52.1099 224.468 53.1644 225.834 53.1644H226.327C228.86 61.4112 236.867 67.4318 246.364 67.4318C257.891 67.4318 267.236 58.5541 267.236 47.6035C267.236 36.6528 257.891 27.7751 246.364 27.7751Z" fill="#FFD46A"/>
<path d="M267.208 48.4868C267.217 48.1893 267.227 47.9009 267.227 47.6035C267.227 42.3039 265.035 37.5 261.468 33.9399C263.489 37.0404 264.646 40.6996 264.646 44.6112C264.646 55.8593 255.045 64.9804 243.205 64.9804C239.087 64.9804 235.236 63.8718 231.972 61.961C235.719 65.3499 240.786 67.4319 246.364 67.4319C255.861 67.4319 263.859 61.4113 266.392 53.1735H266.885C268.251 53.1735 269.361 52.119 269.361 50.8211C269.371 49.6224 268.422 48.64 267.208 48.4868Z" fill="#FCB537"/>
<path d="M246.535 59.3293C242.161 59.3293 238.139 57.4185 235.786 54.228C235.482 53.8134 235.587 53.2455 236.023 52.9571C236.459 52.6687 237.057 52.7679 237.361 53.1825C239.353 55.8953 242.787 57.5086 246.535 57.5086C250.282 57.5086 253.717 55.8953 255.709 53.1825C256.013 52.7679 256.61 52.6687 257.047 52.9571C257.483 53.2455 257.588 53.8134 257.284 54.228C254.931 57.4275 250.908 59.3293 246.535 59.3293Z" fill="#2C3C48"/>
<path d="M238.585 39.1674C238.385 39.1674 238.186 39.0863 238.044 38.9331C237.494 38.3382 236.697 38.0047 235.862 38.0047C235.027 38.0047 234.23 38.3472 233.68 38.9331C233.414 39.2215 232.959 39.2395 232.655 38.9962C232.351 38.7438 232.323 38.3112 232.589 38.0228C233.414 37.1395 234.609 36.6258 235.862 36.6258C237.114 36.6258 238.309 37.1305 239.135 38.0228C239.4 38.3112 239.372 38.7438 239.068 38.9962C238.926 39.1043 238.755 39.1674 238.585 39.1674Z" fill="#F2A84E"/>
<path d="M259.608 39.1584C259.409 39.1584 259.21 39.0773 259.068 38.9241C258.517 38.3292 257.72 37.9957 256.885 37.9957C256.051 37.9957 255.254 38.3382 254.703 38.9241C254.438 39.2125 253.982 39.2305 253.679 38.9781C253.375 38.7258 253.356 38.2932 253.612 38.0048C254.438 37.1215 255.633 36.6078 256.885 36.6078C258.138 36.6078 259.333 37.1125 260.159 38.0048C260.424 38.2932 260.396 38.7258 260.092 38.9781C259.95 39.1043 259.779 39.1584 259.608 39.1584Z" fill="#F2A84E"/>
<path d="M238.936 45.2511C238.357 44.0163 237.18 43.2412 235.852 43.2412C234.534 43.2412 233.348 44.0073 232.769 45.2511C232.731 45.3322 232.712 45.4133 232.702 45.5035C232.541 45.864 232.617 46.2876 232.94 46.558C233.129 46.7112 233.357 46.7923 233.585 46.7923C233.85 46.7923 234.126 46.6842 234.315 46.4769C234.704 46.0623 235.264 45.8189 235.862 45.8189C236.45 45.8189 237.019 46.0623 237.408 46.4769C237.769 46.8554 238.376 46.8915 238.784 46.558C239.106 46.2876 239.182 45.855 239.021 45.5035C238.993 45.4133 238.974 45.3322 238.936 45.2511Z" fill="#2C3C48"/>
<path d="M260.026 45.4944C260.016 45.4133 259.997 45.3232 259.959 45.2421C259.381 44.0073 258.204 43.2322 256.876 43.2322C255.557 43.2322 254.371 43.9983 253.793 45.2421C253.755 45.3232 253.736 45.4043 253.726 45.4944C253.565 45.855 253.631 46.2786 253.963 46.549C254.153 46.7022 254.381 46.7833 254.609 46.7833C254.874 46.7833 255.149 46.6751 255.339 46.4678C255.728 46.0532 256.288 45.8099 256.885 45.8099C257.474 45.8099 258.043 46.0532 258.432 46.4678C258.792 46.8464 259.4 46.8824 259.808 46.549C260.111 46.2876 260.187 45.855 260.026 45.4944Z" fill="#2C3C48"/>
<path d="M237.807 53.7413C237.655 53.8765 236.981 54.4893 236.44 55.0211C236.241 55.2104 236.061 55.3996 235.938 55.5439C234.998 56.6254 233.907 57.8692 233.907 57.8692C232.551 59.7168 233.016 62.2585 234.97 63.5563C236.915 64.8452 239.59 64.3945 240.947 62.5469C240.947 62.5469 242.655 60.6091 243.973 59.1039C244.021 59.0499 244.078 58.9868 244.125 58.9327C244.486 58.5181 245.083 57.7881 245.358 57.4456C242.332 57.1752 239.609 55.8413 237.807 53.7413Z" fill="#F04C44"/>
<path d="M236.061 63.0786C235.976 63.0786 235.89 63.0516 235.814 63.0065C235.615 62.8804 235.568 62.619 235.71 62.4297L238.11 59.167C238.243 58.9778 238.518 58.9327 238.717 59.0679C238.917 59.1941 238.964 59.4555 238.822 59.6357L236.421 62.8984C236.336 63.0156 236.203 63.0786 236.061 63.0786Z" fill="#D32B2A"/>
</svg>
